<svg xmlns="http://www.w3.org/2000/svg" xmlns:xlink="http://www.w3.org/1999/xlink" enable-background="new 0 0 250 81" height="81.0" id="Layer_1" version="1.1" viewBox="0 0 250 81" width="250.0" x="0px" xml:space="preserve" y="0px">
<g>
	<rect fill="#003A78" height="77.5" width="247.212" x="1.456" y="1.75"/>
	<path d="M247.418,3v75H2.706V3H247.418 M249.918,0.5h-2.5H2.706h-2.5V3v75v2.5h2.5h244.712h2.5V78V3V0.5   L249.918,0.5z" fill="#FFFFFF"/>
</g>
<path d="M75.028,19.449c-1.105-0.705-3.362-2.356-4.98-2.337c-1.661,0.02-3.19,1.066-3.624,1.995  c-0.066,0.141-0.116,0.273-0.153,0.396c-0.171,0.038-0.256,0.088-0.256,0.088s-0.444,0.074-1.33,0.393  c-0.031,0.011-0.059,0.021-0.088,0.032l4.063-5.203l0.247,0.147c0.103,0.028,0.22,0.05,0.353,0.063  c0.876,0.087,2.504-0.678,3.544-2.046c1.013-1.333,1.33-3.998,1.553-5.255c0.223-1.257,1.086-2.026,1.086-2.026  s-2.573,0.895-4.048,1.701c-1.475,0.806-2.676,2.186-3.13,3.247c-0.585,1.367-0.372,2.646-0.186,3.365  c0.06,0.231,0.131,0.448,0.279,0.623l0.275,0.164c-1.597,1.729-3.134,3.271-4.534,4.656c0.025-0.621,0.162-1.03,0.162-1.03  s0.046-0.093,0.08-0.278c0.115-0.042,0.237-0.098,0.369-0.171c0.867-0.481,1.829-2.15,1.829-3.947c0-1.752-1.573-4.172-2.247-5.359  c-0.674-1.187-0.417-2.375-0.417-2.375s-1.742,2.375-2.535,3.979c-0.793,1.605-0.934,3.514-0.61,4.686  c0.417,1.508,1.508,2.439,2.182,2.92c0.216,0.154,0.433,0.29,0.692,0.343c-0.001,0.181-0.016,0.34-0.051,0.459  c-0.102,0.356-0.382,1.217-0.68,1.983c-0.67,0.663-1.299,1.289-1.874,1.881l-2.591,3.415c-6.761,8.916-11.459,20.674-7.35,32.192  l2.235-3.113c-2.466-10.572,1.223-20.105,6.393-28.394l2.28-3.257l1.438-1.842c0.765-0.477,1.956-1.049,2.383-1.196  c0.11-0.038,0.257-0.055,0.424-0.059c0.052,0.275,0.18,0.506,0.326,0.735c0.454,0.714,1.327,1.867,2.726,2.296  c1.086,0.332,2.848,0.161,4.321-0.703c1.472-0.864,3.644-2.749,3.644-2.749S76.134,20.155,75.028,19.449z" fill="#FFFFFF"/>
<path d="M65.469,28.691c-0.943-1.985-1.693-3.354-3.745-5.434l-1.014-0.819c-6.469-5.733-15.393-7.199-21.63-13.782  C28.334,6.951,16.704,9.246,6.063,6.843c3.941,2.34,8.466,3.932,12.99,5.226C24.692,8.892,31.86,8.72,38.497,8.955l0.882,0.698  c2.293,6.76,9.58,7.527,14.336,11.289v0.285c-4.053-0.463-8.345-0.939-12.518-0.704c-1.047-1.909-2.728-2.885-4.519-3.303  l0.003-0.008c-3.183-0.686-7.01,0.177-9.581-0.68l1.523,1.7c0.537,0.178,1.181-0.292,1.824-0.12c1.058,1.884,2.823,3.589,4.523,5.06  c1.588,0.642,3.293,0,4.937,0c6.524,0,12.926,0.228,18.511,2.531l1.346,0.578c2.586,1.172,5.289,3.062,6.937,5.643L65.469,28.691z   M34.766,21.023c-0.942-0.824-1.763-1.706-1.996-2.815c1.106,0.216,2.146,0.497,3.156,0.884l0-0.001  c0.931,0.377,1.981,0.891,2.775,1.35C36.864,20.441,36.949,23.073,34.766,21.023z" fill="#FFFFFF"/>
<path d="M65.469,62.625c-2.57,5.623-6.125,10.702-10.27,15.375h5.84c3.767-3.838,6.939-8.199,9.07-13.497  c3.053-8.633-1.819-16.573-7.757-22.566C66.113,47.703,68.876,55.808,65.469,62.625z" fill="#FFFFFF"/>
<path d="M38.116,38.859c-3.038-2.691-20.493-12.524-20.493-24.028l-9.302-2.977  c4.653,5.899,3.798,7.593,14.305,17.572c11.936,11.336,17.795,15.756,14.833,20.1c-1.324,1.942-10.728,4.147-17.695-7.515  C15.22,34.406,9.81,23.842,2.182,16.209v5.877C9.543,32.484,12.194,42.192,17.659,46.98c11.871,10.401,24.753,5.94,25.288,1.051  C43.306,44.756,41.154,41.55,38.116,38.859z" fill="#FFFFFF"/>
<g>
	<path d="M85.041,13.616v14.218h8.477v1.794H82.911V13.616H85.041z" fill="#FFFFFF"/>
	<path d="M96.607,13.616v16.012h-2.131V13.616H96.607z" fill="#FFFFFF"/>
	<path d="M103.143,29.629l-5.629-16.012h2.288l4.575,13.882h0.045l4.62-13.882h2.22l-5.696,16.012H103.143z" fill="#FFFFFF"/>
	<path d="M123.179,13.616v1.794h-8.925v5.091h8.32v1.794h-8.32v5.539h8.993v1.794h-11.123V13.616H123.179z" fill="#FFFFFF"/>
	<path d="M132.27,13.616c1.526,0,2.717,0.374,3.577,1.121c0.86,0.748,1.29,1.772,1.29,3.073   c0,0.972-0.221,1.824-0.661,2.557c-0.441,0.733-1.147,1.233-2.12,1.502v0.045c0.463,0.09,0.841,0.24,1.132,0.449   c0.292,0.21,0.523,0.46,0.695,0.751c0.172,0.292,0.299,0.617,0.381,0.976c0.082,0.359,0.145,0.733,0.191,1.121   c0.03,0.389,0.052,0.785,0.067,1.189c0.015,0.404,0.052,0.8,0.112,1.189c0.06,0.389,0.146,0.759,0.258,1.11   c0.112,0.351,0.28,0.662,0.504,0.931h-2.377c-0.149-0.164-0.251-0.389-0.303-0.673c-0.052-0.284-0.086-0.602-0.101-0.953   c-0.015-0.351-0.03-0.729-0.045-1.132c-0.015-0.404-0.06-0.8-0.135-1.189c-0.059-0.388-0.134-0.759-0.224-1.11   c-0.09-0.351-0.232-0.658-0.426-0.919c-0.194-0.261-0.448-0.471-0.762-0.628c-0.314-0.157-0.733-0.236-1.256-0.236h-5.203v6.84   h-2.131V13.616H132.27z M132.718,20.882c0.448-0.075,0.841-0.22,1.177-0.437c0.337-0.217,0.606-0.508,0.807-0.875   c0.202-0.366,0.303-0.841,0.303-1.424c0-0.807-0.224-1.465-0.672-1.974c-0.449-0.508-1.175-0.762-2.176-0.762h-5.292v5.584h4.44   C131.799,20.995,132.27,20.957,132.718,20.882z" fill="#FFFFFF"/>
	<path d="M146.284,13.616c1.615,0,2.837,0.415,3.667,1.245c0.83,0.83,1.245,1.993,1.245,3.487   c0,1.495-0.415,2.661-1.245,3.498c-0.83,0.838-2.052,1.248-3.667,1.234h-4.888v6.548h-2.13V13.616H146.284z M145.566,21.286   c1.211,0.015,2.097-0.232,2.657-0.74c0.561-0.508,0.841-1.241,0.841-2.198c0-0.957-0.28-1.685-0.841-2.187   c-0.561-0.501-1.446-0.751-2.657-0.751h-4.171v5.876H145.566z" fill="#FFFFFF"/>
	<path d="M152.415,18.472c0.321-1.009,0.803-1.902,1.447-2.68c0.642-0.777,1.442-1.398,2.399-1.861   c0.957-0.463,2.071-0.695,3.342-0.695c1.27,0,2.384,0.232,3.341,0.695c0.956,0.464,1.757,1.084,2.4,1.861   c0.642,0.778,1.125,1.671,1.446,2.68c0.321,1.009,0.482,2.06,0.482,3.151c0,1.092-0.161,2.142-0.482,3.151   c-0.322,1.009-0.804,1.903-1.446,2.68c-0.643,0.778-1.443,1.394-2.4,1.85c-0.957,0.456-2.071,0.684-3.341,0.684   c-1.271,0-2.385-0.228-3.342-0.684c-0.957-0.456-1.757-1.073-2.399-1.85c-0.643-0.777-1.126-1.671-1.447-2.68   c-0.322-1.009-0.483-2.059-0.483-3.151C151.933,20.531,152.093,19.481,152.415,18.472z M154.377,24.011   c0.209,0.785,0.538,1.491,0.987,2.119c0.449,0.628,1.024,1.132,1.727,1.514c0.703,0.381,1.54,0.572,2.512,0.572   c0.971,0,1.808-0.191,2.511-0.572c0.703-0.381,1.279-0.886,1.727-1.514c0.449-0.628,0.777-1.335,0.987-2.119   c0.209-0.785,0.314-1.581,0.314-2.388c0-0.807-0.105-1.604-0.314-2.388c-0.209-0.785-0.538-1.491-0.987-2.119   c-0.448-0.628-1.024-1.133-1.727-1.514c-0.703-0.381-1.54-0.572-2.511-0.572c-0.972,0-1.809,0.191-2.512,0.572   c-0.703,0.381-1.278,0.886-1.727,1.514c-0.449,0.628-0.777,1.334-0.987,2.119c-0.21,0.785-0.314,1.581-0.314,2.388   C154.064,22.43,154.168,23.226,154.377,24.011z" fill="#FFFFFF"/>
	<path d="M168.616,18.472c0.321-1.009,0.803-1.902,1.447-2.68c0.642-0.777,1.442-1.398,2.399-1.861   c0.957-0.463,2.071-0.695,3.342-0.695c1.27,0,2.384,0.232,3.341,0.695c0.957,0.464,1.756,1.084,2.4,1.861   c0.642,0.778,1.125,1.671,1.446,2.68c0.322,1.009,0.482,2.06,0.482,3.151c0,1.092-0.16,2.142-0.482,3.151   c-0.322,1.009-0.804,1.903-1.446,2.68c-0.643,0.778-1.443,1.394-2.4,1.85c-0.957,0.456-2.071,0.684-3.341,0.684   c-1.271,0-2.385-0.228-3.342-0.684c-0.957-0.456-1.757-1.073-2.399-1.85c-0.643-0.777-1.125-1.671-1.447-2.68   c-0.322-1.009-0.482-2.059-0.482-3.151C168.134,20.531,168.294,19.481,168.616,18.472z M170.578,24.011   c0.209,0.785,0.538,1.491,0.987,2.119c0.449,0.628,1.024,1.132,1.727,1.514c0.702,0.381,1.54,0.572,2.512,0.572   c0.971,0,1.808-0.191,2.512-0.572c0.702-0.381,1.278-0.886,1.726-1.514c0.449-0.628,0.778-1.335,0.987-2.119   c0.209-0.785,0.314-1.581,0.314-2.388c0-0.807-0.105-1.604-0.314-2.388c-0.209-0.785-0.538-1.491-0.987-2.119   c-0.448-0.628-1.024-1.133-1.726-1.514c-0.703-0.381-1.54-0.572-2.512-0.572c-0.972,0-1.809,0.191-2.512,0.572   c-0.703,0.381-1.278,0.886-1.727,1.514c-0.448,0.628-0.777,1.334-0.987,2.119c-0.21,0.785-0.314,1.581-0.314,2.388   C170.264,22.43,170.368,23.226,170.578,24.011z" fill="#FFFFFF"/>
	<path d="M187.321,13.616v14.218h8.477v1.794h-10.608V13.616H187.321z" fill="#FFFFFF"/>
	<path d="M91.786,48.648c-0.157,0.523-0.419,0.99-0.785,1.401c-0.367,0.411-0.852,0.741-1.458,0.987   c-0.605,0.247-1.357,0.37-2.254,0.37c-1.495,0-2.646-0.393-3.454-1.177c-0.807-0.785-1.211-1.94-1.211-3.465v-0.987h2.13v0.673   c0,0.463,0.037,0.89,0.112,1.278c0.075,0.389,0.205,0.726,0.393,1.009c0.187,0.284,0.449,0.505,0.785,0.662   c0.337,0.156,0.766,0.235,1.289,0.235c0.972,0,1.641-0.261,2.007-0.785c0.366-0.523,0.549-1.226,0.549-2.108V35.035h2.13v12.02   C92.021,47.593,91.943,48.124,91.786,48.648z" fill="#FFFFFF"/>
	<path d="M94.161,39.89c0.322-1.009,0.804-1.902,1.447-2.68c0.643-0.777,1.443-1.398,2.4-1.861   c0.956-0.463,2.071-0.695,3.341-0.695c1.271,0,2.385,0.232,3.342,0.695c0.956,0.464,1.756,1.084,2.399,1.861   c0.643,0.778,1.125,1.671,1.447,2.68c0.321,1.009,0.482,2.06,0.482,3.151c0,1.092-0.161,2.142-0.482,3.151   c-0.322,1.009-0.804,1.902-1.447,2.68c-0.643,0.777-1.443,1.394-2.399,1.85c-0.957,0.456-2.071,0.684-3.342,0.684   c-1.27,0-2.385-0.228-3.341-0.684c-0.957-0.456-1.757-1.072-2.4-1.85c-0.643-0.778-1.125-1.671-1.447-2.68   c-0.322-1.009-0.482-2.059-0.482-3.151C93.678,41.95,93.839,40.899,94.161,39.89z M96.123,45.429   c0.209,0.785,0.538,1.491,0.987,2.119c0.448,0.628,1.024,1.133,1.726,1.514c0.703,0.382,1.54,0.572,2.512,0.572   c0.972,0,1.809-0.19,2.512-0.572c0.702-0.381,1.278-0.886,1.726-1.514c0.449-0.628,0.777-1.334,0.987-2.119   c0.209-0.785,0.314-1.581,0.314-2.388c0-0.807-0.105-1.604-0.314-2.388c-0.209-0.785-0.538-1.491-0.987-2.119   c-0.448-0.628-1.024-1.133-1.726-1.514c-0.703-0.381-1.541-0.572-2.512-0.572c-0.972,0-1.809,0.191-2.512,0.572   c-0.703,0.381-1.278,0.886-1.726,1.514c-0.448,0.628-0.778,1.334-0.987,2.119c-0.209,0.785-0.314,1.581-0.314,2.388   C95.809,43.848,95.914,44.644,96.123,45.429z" fill="#FFFFFF"/>
	<path d="M112.867,35.035v6.885h8.432v-6.885h2.131v16.012h-2.131v-7.333h-8.432v7.333h-2.131V35.035H112.867z" fill="#FFFFFF"/>
	<path d="M128.25,35.035l8.432,12.985h0.045V35.035h2.018v16.012h-2.332l-8.365-12.85h-0.045v12.85h-2.018V35.035   H128.25z" fill="#FFFFFF"/>
	<path d="M150.496,35.035l5.046,13.456l5.068-13.456h2.916v16.012h-2.019V37.726h-0.045l-5.001,13.321h-1.817   l-5.001-13.321h-0.045v13.321h-2.018V35.035H150.496z" fill="#FFFFFF"/>
	<path d="M165.732,39.89c0.321-1.009,0.804-1.902,1.447-2.68c0.643-0.777,1.442-1.398,2.399-1.861   c0.957-0.463,2.071-0.695,3.342-0.695c1.271,0,2.385,0.232,3.342,0.695c0.956,0.464,1.756,1.084,2.399,1.861   c0.643,0.778,1.125,1.671,1.447,2.68c0.321,1.009,0.482,2.06,0.482,3.151c0,1.092-0.161,2.142-0.482,3.151   c-0.321,1.009-0.804,1.902-1.447,2.68c-0.643,0.777-1.443,1.394-2.399,1.85c-0.957,0.456-2.071,0.684-3.342,0.684   c-1.271,0-2.385-0.228-3.342-0.684c-0.957-0.456-1.757-1.072-2.399-1.85c-0.643-0.778-1.125-1.671-1.447-2.68   c-0.322-1.009-0.482-2.059-0.482-3.151C165.25,41.95,165.411,40.899,165.732,39.89z M167.695,45.429   c0.209,0.785,0.538,1.491,0.987,2.119c0.448,0.628,1.024,1.133,1.726,1.514c0.703,0.382,1.54,0.572,2.512,0.572   c0.972,0,1.809-0.19,2.512-0.572c0.702-0.381,1.278-0.886,1.727-1.514c0.449-0.628,0.777-1.334,0.987-2.119   c0.209-0.785,0.314-1.581,0.314-2.388c0-0.807-0.105-1.604-0.314-2.388c-0.21-0.785-0.538-1.491-0.987-2.119   c-0.449-0.628-1.025-1.133-1.727-1.514c-0.703-0.381-1.54-0.572-2.512-0.572c-0.972,0-1.809,0.191-2.512,0.572   c-0.703,0.381-1.278,0.886-1.726,1.514c-0.449,0.628-0.778,1.334-0.987,2.119c-0.21,0.785-0.314,1.581-0.314,2.388   C167.381,43.848,167.485,44.644,167.695,45.429z" fill="#FFFFFF"/>
	<path d="M181.933,39.89c0.321-1.009,0.804-1.902,1.446-2.68c0.642-0.777,1.442-1.398,2.4-1.861   c0.957-0.463,2.071-0.695,3.342-0.695c1.271,0,2.384,0.232,3.342,0.695c0.956,0.464,1.756,1.084,2.399,1.861   c0.643,0.778,1.125,1.671,1.447,2.68c0.321,1.009,0.482,2.06,0.482,3.151c0,1.092-0.161,2.142-0.482,3.151   c-0.322,1.009-0.804,1.902-1.447,2.68c-0.643,0.777-1.443,1.394-2.399,1.85c-0.957,0.456-2.071,0.684-3.342,0.684   c-1.271,0-2.385-0.228-3.342-0.684c-0.957-0.456-1.757-1.072-2.4-1.85c-0.643-0.778-1.125-1.671-1.446-2.68   c-0.322-1.009-0.482-2.059-0.482-3.151C181.451,41.95,181.611,40.899,181.933,39.89z M183.895,45.429   c0.209,0.785,0.538,1.491,0.987,2.119c0.448,0.628,1.024,1.133,1.726,1.514c0.703,0.382,1.54,0.572,2.512,0.572   c0.971,0,1.808-0.19,2.512-0.572c0.703-0.381,1.279-0.886,1.727-1.514c0.449-0.628,0.777-1.334,0.987-2.119   c0.209-0.785,0.314-1.581,0.314-2.388c0-0.807-0.105-1.604-0.314-2.388c-0.209-0.785-0.538-1.491-0.987-2.119   c-0.448-0.628-1.024-1.133-1.727-1.514c-0.703-0.381-1.54-0.572-2.512-0.572c-0.972,0-1.809,0.191-2.512,0.572   c-0.703,0.381-1.278,0.886-1.726,1.514c-0.449,0.628-0.778,1.334-0.987,2.119c-0.21,0.785-0.314,1.581-0.314,2.388   C183.581,43.848,183.685,44.644,183.895,45.429z" fill="#FFFFFF"/>
	<path d="M206.043,35.035c1.525,0,2.717,0.374,3.577,1.121c0.86,0.748,1.289,1.772,1.289,3.072   c0,0.972-0.22,1.824-0.662,2.557c-0.441,0.733-1.147,1.233-2.119,1.502v0.045c0.463,0.09,0.841,0.239,1.132,0.449   c0.291,0.21,0.523,0.46,0.695,0.751c0.171,0.292,0.299,0.617,0.381,0.975c0.082,0.359,0.146,0.733,0.191,1.121   c0.03,0.389,0.052,0.785,0.067,1.189c0.015,0.403,0.052,0.8,0.112,1.188c0.06,0.389,0.146,0.759,0.258,1.11   c0.112,0.352,0.281,0.661,0.505,0.931h-2.377c-0.15-0.164-0.25-0.388-0.303-0.673c-0.052-0.284-0.086-0.602-0.101-0.953   c-0.015-0.351-0.03-0.729-0.045-1.132c-0.015-0.403-0.06-0.8-0.134-1.189c-0.06-0.389-0.135-0.759-0.224-1.11   c-0.09-0.351-0.232-0.658-0.426-0.919c-0.194-0.262-0.449-0.471-0.762-0.628c-0.314-0.157-0.733-0.236-1.256-0.236h-5.203v6.84   h-2.13V35.035H206.043z M206.491,42.301c0.449-0.075,0.841-0.22,1.178-0.437c0.336-0.217,0.605-0.508,0.807-0.875   c0.202-0.366,0.303-0.841,0.303-1.424c0-0.807-0.225-1.465-0.673-1.974c-0.449-0.508-1.174-0.762-2.176-0.762h-5.292v5.584h4.44   C205.572,42.413,206.043,42.376,206.491,42.301z" fill="#FFFFFF"/>
	<path d="M224.094,35.035v1.794h-8.926v5.091h8.32v1.794h-8.32v5.539h8.993v1.794h-11.123V35.035H224.094z" fill="#FFFFFF"/>
	<path d="M233.481,37.221c-0.711-0.516-1.619-0.774-2.725-0.774c-0.449,0-0.89,0.045-1.323,0.135   c-0.433,0.09-0.818,0.239-1.155,0.449c-0.336,0.209-0.605,0.49-0.807,0.841c-0.202,0.351-0.303,0.789-0.303,1.312   c0,0.493,0.146,0.894,0.437,1.2c0.292,0.307,0.68,0.557,1.167,0.751c0.486,0.194,1.035,0.355,1.648,0.482   c0.613,0.127,1.237,0.266,1.873,0.415c0.635,0.15,1.259,0.325,1.872,0.527c0.613,0.202,1.162,0.475,1.648,0.819   c0.486,0.344,0.875,0.778,1.166,1.301c0.292,0.523,0.437,1.181,0.437,1.974c0,0.852-0.191,1.581-0.572,2.186   c-0.381,0.606-0.871,1.099-1.469,1.48c-0.598,0.381-1.267,0.658-2.008,0.83c-0.74,0.172-1.477,0.258-2.209,0.258   c-0.897,0-1.746-0.112-2.545-0.337c-0.8-0.224-1.503-0.564-2.108-1.02c-0.606-0.456-1.084-1.039-1.435-1.749   c-0.352-0.71-0.528-1.551-0.528-2.523h2.019c0,0.673,0.131,1.252,0.392,1.738c0.262,0.486,0.606,0.885,1.032,1.2   c0.426,0.314,0.923,0.546,1.492,0.695c0.568,0.149,1.151,0.224,1.749,0.224c0.478,0,0.961-0.045,1.447-0.134   c0.485-0.09,0.923-0.243,1.312-0.46c0.389-0.217,0.702-0.512,0.942-0.886c0.238-0.374,0.359-0.852,0.359-1.435   c0-0.553-0.146-1.002-0.437-1.346c-0.292-0.344-0.68-0.624-1.166-0.841c-0.486-0.217-1.036-0.393-1.649-0.527   c-0.613-0.134-1.237-0.272-1.872-0.415c-0.636-0.142-1.26-0.306-1.872-0.493c-0.613-0.187-1.163-0.434-1.648-0.74   c-0.486-0.306-0.875-0.703-1.166-1.189c-0.292-0.486-0.438-1.095-0.438-1.828c0-0.807,0.165-1.506,0.494-2.097   c0.329-0.59,0.766-1.076,1.312-1.458c0.546-0.381,1.166-0.665,1.861-0.852c0.695-0.187,1.409-0.28,2.142-0.28   c0.822,0,1.585,0.098,2.288,0.291c0.702,0.195,1.319,0.501,1.85,0.919c0.53,0.419,0.949,0.946,1.256,1.581   c0.306,0.636,0.475,1.394,0.504,2.276h-2.018C234.606,38.571,234.191,37.737,233.481,37.221z" fill="#FFFFFF"/>
	<path d="M92.427,63.722c0,3.13-1.436,4.687-4.702,4.687c-3.265,0-4.702-1.557-4.702-4.687v-6.335h2.812v6.501   c0,1.391,0.514,2.101,1.89,2.101c1.376,0,1.89-0.71,1.89-2.101v-6.501h2.812V63.722z" fill="#FFFFFF"/>
	<path d="M94.003,57.387h2.887l3.749,6.652h0.03v-6.652h2.646v10.794h-2.888l-3.749-6.727h-0.03v6.727h-2.646V57.387   z" fill="#FFFFFF"/>
	<path d="M104.956,57.387h2.812v10.794h-2.812V57.387z" fill="#FFFFFF"/>
	<path d="M114.925,68.181h-3.235l-3.402-10.794h2.933l2.116,8.028h0.03l2.117-8.028h2.933L114.925,68.181z" fill="#FFFFFF"/>
	<path d="M118.948,57.387h8.602v2.252h-5.79v1.89h5.291v2.177h-5.291v2.056h5.941v2.419h-8.753V57.387z" fill="#FFFFFF"/>
	<path d="M129.058,57.387h5.503c1.905,0,3.78,0.862,3.78,3.039c0,1.164-0.56,2.268-1.693,2.706v0.03   c1.149,0.272,1.481,1.557,1.572,2.585c0.03,0.454,0.076,2.041,0.454,2.434h-2.782c-0.242-0.363-0.288-1.421-0.318-1.724   c-0.076-1.088-0.257-2.207-1.573-2.207h-2.132v3.931h-2.812V57.387z M131.87,62.074h2.359c0.847,0,1.3-0.453,1.3-1.27   c0-0.801-0.635-1.164-1.421-1.164h-2.238V62.074z" fill="#FFFFFF"/>
	<path d="M141.914,64.553c0.061,1.27,0.847,1.678,2.041,1.678c0.846,0,1.723-0.302,1.723-1.104   c0-0.952-1.542-1.134-3.099-1.572c-1.542-0.439-3.16-1.134-3.16-3.114c0-2.358,2.374-3.281,4.4-3.281   c2.147,0,4.308,1.043,4.323,3.477h-2.812c0.046-0.982-0.877-1.3-1.739-1.3c-0.605,0-1.36,0.212-1.36,0.922   c0,0.832,1.557,0.983,3.129,1.422c1.557,0.438,3.129,1.164,3.129,3.114c0,2.736-2.328,3.614-4.702,3.614   c-2.479,0-4.671-1.089-4.687-3.855H141.914z" fill="#FFFFFF"/>
	<path d="M149.581,57.387h2.812v10.794h-2.812V57.387z" fill="#FFFFFF"/>
	<path d="M162.359,59.806h-3.22v8.375h-2.812v-8.375h-3.22v-2.419h9.252V59.806z" fill="#FFFFFF"/>
	<path d="M169.265,64.16v4.021h-2.812V64.16l-3.931-6.773h3.19l2.147,4.384l2.147-4.384h3.19L169.265,64.16z" fill="#FFFFFF"/>
</g>
</svg>