<svg xmlns:xlink="http://www.w3.org/1999/xlink" xmlns:ev="http://www.w3.org/2001/xml-events" height="1597" xmlns="http://www.w3.org/2000/svg" width="3377" viewBox="0 0 3377 1597"><defs/><g id="page1" transform="translate(5.5,5.5)"><rect fill="#ffffff" y="0" x="0" height="1587" width="3368"/><path fill="#000000" stroke-width="3" id="shape1" transform="translate(1674.78,45.24)" d="M0,9.2C0,4.1,4.1,0,9.2,0C14.2,0,18.3,4.1,18.3,9.2C18.3,14.2,14.2,18.3,9.2,18.3C4.1,18.3,0,14.2,0,9.2z" fill-rule="evenodd" stroke="#323232"/><g id="shape2" transform="translate(1683.78,63.24)"><path stroke-width="3" fill="none" d="M0,0L0,17.8" stroke="#303030"/><path stroke-width="1" fill="#303030" stroke-linecap="round" d="M5.2,17.8L0,28.2L-5.2,17.8L5.2,17.8" stroke="#303030"/></g><g id="shape3" transform="translate(1580.94,91.41)"><path fill="#ffffff" stroke-width="3" d="M57.6,0L205.7,0L148.1,33L0,33L57.6,0z" fill-rule="evenodd" stroke="#323232"/><text xml:space="preserve" style="fill:#191919;font-family:Cairo;font-size:12pt"><tspan y="22" x="66.4">Read input</tspan></text></g><g id="shape4" transform="translate(1604.99,152.24)"><path fill="#ffffff" stroke-width="3" d="M0,55.1L79,0L157.9,55.1L79,110.2L0,55.1z" fill-rule="evenodd" stroke="#323232"/><text xml:space="preserve" style="fill:#191919;font-family:Cairo;font-size:12pt"><tspan y="60.1" x="8.6">i &lt;= numOfDigitInput</tspan></text></g><g id="shape5" transform="translate(1683.78,124.41)"><path stroke-width="3" fill="none" d="M0,0L0,11.8L.2,11.8L.2,17.4" stroke="#303030"/><path stroke-width="1" fill="#303030" stroke-linecap="round" d="M5.4,17.4L.2,27.8L-5,17.4L5.4,17.4" stroke="#303030"/></g><g id="shape6" transform="translate(1611.7,290.24)"><path fill="#ffffff" stroke-width="3" d="M144.5,47L144.5,0L0,0L0,47L144.5,47z" fill-rule="evenodd" stroke="#323232"/><text xml:space="preserve" style="fill:#191919;font-family:Cairo;font-size:12pt"><tspan y="28.5" x="6.7">readInput = input[i]</tspan></text></g><g id="shape7" transform="translate(1683.95,262.41)"><path stroke-width="3" fill="none" d="M0,0L0,17.4" stroke="#303030"/><path stroke-width="1" fill="#303030" stroke-linecap="round" d="M5.2,17.4L0,27.8L-5.2,17.4L5.2,17.4" stroke="#303030"/></g><g id="shape8" transform="translate(1611.7,365.07)"><path fill="#ffffff" stroke-width="3" d="M0,60L72.2,0L144.5,60L72.2,120L0,60z" fill-rule="evenodd" stroke="#323232"/><text xml:space="preserve" style="fill:#191919;font-family:Cairo;font-size:12pt"><tspan y="65" x="9">!isalpha(readInput)</tspan></text></g><g id="shape9" transform="translate(1611.7,425.07)"><path stroke-width="3" fill="none" d="M0,0L-177.1,0L-177.1,131.5" stroke="#303030"/><path stroke-width="1" fill="#303030" stroke-linecap="round" d="M-172,131.5L-177.1,141.9L-182.3,131.5L-172,131.5" stroke="#303030"/><rect fill="#ffffff" y="-15.8" x="-115.8" height="29.6" width="29.6"/><text xml:space="preserve" style="fill:#191919;font-family:Cairo;font-size:12pt"><tspan y="5" x="-115.8">True</tspan></text></g><g id="shape10" transform="translate(1683.95,337.24)"><path stroke-width="3" fill="none" d="M0,0L-0,17.4" stroke="#303030"/><path stroke-width="1" fill="#303030" stroke-linecap="round" d="M5.2,17.4L-0,27.8L-5.2,17.4L5.2,17.4" stroke="#303030"/></g><g id="shape11" transform="translate(1348.05,567)"><path fill="#ffffff" stroke-width="3" d="M173,29.5L173,0L0,0L0,29.5L173,29.5z" fill-rule="evenodd" stroke="#323232"/><text xml:space="preserve" style="fill:#191919;font-family:Cairo;font-size:12pt"><tspan y="24" x="16.5">numLoobForNum++</tspan></text></g><g id="shape12" transform="translate(1319.55,837.43)"><path fill="#ffffff" stroke-width="3" d="M230,49L230,0L0,0L0,49L230,49z" fill-rule="evenodd" stroke="#323232"/><text xml:space="preserve" style="fill:#191919;font-family:Cairo;font-size:12pt"><tspan y="29.5" x="23.4">numbersEnd[i] = readInput</tspan></text></g><g id="shape13" transform="translate(1328.3,637.43)"><path fill="#ffffff" stroke-width="3" d="M0,39.5L106.3,0L212.5,39.5L106.3,79L0,39.5z" fill-rule="evenodd" stroke="#323232"/><text xml:space="preserve" style="fill:#191919;font-family:Cairo;font-size:12pt"><tspan y="44.5" x="28.6">numLoobForNum == 1</tspan></text></g><g id="shape14" transform="translate(1434.55,596.5)"><path stroke-width="3" fill="none" d="M0,0L0,30.5" stroke="#303030"/><path stroke-width="1" fill="#303030" stroke-linecap="round" d="M5.2,30.5L0,40.9L-5.2,30.5L5.2,30.5" stroke="#303030"/></g><g id="shape15" transform="translate(1434.55,716.43)"><path stroke-width="3" fill="none" d="M0,0L0,110.6" stroke="#303030"/><path stroke-width="1" fill="#303030" stroke-linecap="round" d="M5.2,110.6L0,121L-5.2,110.6L5.2,110.6" stroke="#303030"/><rect fill="#ffffff" y="20.2" x="-13.8" height="29.6" width="29.6"/><text xml:space="preserve" style="fill:#191919;font-family:Cairo;font-size:12pt"><tspan y="41" x="-13.8">True</tspan></text></g><g id="shape16" transform="translate(1746.52,246)"><path fill="#ffffff" stroke-width="3" d="M173,32L173,0L0,0L0,32L173,32z" fill-rule="evenodd" stroke="#323232"/><text xml:space="preserve" style="fill:#191919;font-family:Cairo;font-size:12pt"><tspan y="21" x="76.1">i++</tspan></text></g><g id="shape17" transform="translate(1833.02,246)"><path stroke-width="3" fill="none" d="M0,0L0,-38.7L-59.7,-38.7" stroke="#303030"/><path stroke-width="1" fill="#303030" stroke-linecap="round" d="M-59.7,-33.5L-70.1,-38.7L-59.7,-43.9L-59.7,-33.5" stroke="#303030"/></g><g id="shape18" transform="translate(990.38,637.43)"><path fill="#ffffff" stroke-width="3" d="M0,39.5L106.3,0L212.5,39.5L106.3,79L0,39.5z" fill-rule="evenodd" stroke="#323232"/><text xml:space="preserve" style="fill:#191919;font-family:Cairo;font-size:12pt"><tspan y="44.5" x="27.1">numLoobForNum >=  2</tspan></text></g><g id="shape19" transform="translate(1096.63,716.43)"><path stroke-width="3" fill="none" d="M0,0L0,150.6" stroke="#303030"/><path stroke-width="1" fill="#303030" stroke-linecap="round" d="M5.2,150.6L0,161L-5.2,150.6L5.2,150.6" stroke="#303030"/><rect fill="#ffffff" y="36.7" x="-13.8" height="29.6" width="29.6"/><text xml:space="preserve" style="fill:#191919;font-family:Cairo;font-size:12pt"><tspan y="57.5" x="-13.8">True</tspan></text></g><g id="shape20" transform="translate(1002.75,877.43)"><path fill="#ffffff" stroke-width="3" d="M0,47.5L93.9,0L187.8,47.5L93.9,95L0,47.5z" fill-rule="evenodd" stroke="#323232"/><text xml:space="preserve" style="fill:#191919;font-family:Cairo;font-size:12pt"><tspan y="52.5" x="16.3">n &lt;= numLoobForNum</tspan></text></g><g id="shape21" transform="translate(962.81,1114)"><path fill="#ffffff" stroke-width="3" d="M266.5,54L266.5,0L0,0L0,54L266.5,54z" fill-rule="evenodd" stroke="#323232"/><text xml:space="preserve" style="fill:#191919;font-family:Cairo;font-size:12pt"><tspan y="32" x="21.3">tempString[n] = numbersStart[n]</tspan></text></g><g id="shape22" transform="translate(1096.63,972.43)"><path stroke-width="3" fill="none" d="M0,0L0,109.6L-0.6,109.6L-0.6,131.2" stroke="#303030"/><path stroke-width="1" fill="#303030" stroke-linecap="round" d="M4.6,131.2L-0.6,141.6L-5.8,131.2L4.6,131.2" stroke="#303030"/><rect fill="#ffffff" y="49.1" x="-13.8" height="29.6" width="29.6"/><text xml:space="preserve" style="fill:#191919;font-family:Cairo;font-size:12pt"><tspan y="69.9" x="-13.8">True</tspan></text></g><g id="shape23" transform="translate(923.34,1196.5)"><path fill="#ffffff" stroke-width="3" d="M346.6,45L346.6,0L0,0L0,45L346.6,45z" fill-rule="evenodd" stroke="#323232"/><text xml:space="preserve" style="fill:#191919;font-family:Cairo;font-size:12pt"><tspan y="27.5" x="16.9">tempIntArray[n] = convert_int(tempString[n]);</tspan></text></g><g id="shape24" transform="translate(1096.06,1168)"><path stroke-width="3" fill="none" d="M0,0L0,12.5L.6,12.5L.6,18.1" stroke="#303030"/><path stroke-width="1" fill="#303030" stroke-linecap="round" d="M5.8,18.1L.6,28.5L-4.6,18.1L5.8,18.1" stroke="#303030"/></g><g id="shape25" transform="translate(1252.18,1143.43)"><path fill="#ffffff" stroke-width="3" d="M285.6,32L285.6,7C285.6,3.1,282.5,0,278.6,0L7,0C3.1,0,0,3.1,0,7L0,32C0,35.9,3.1,39,7,39L278.6,39C282.5,39,285.6,35.9,285.6,32z" fill-rule="evenodd" stroke="#323232"/><text xml:space="preserve" style="fill:#191919;font-family:Cairo;font-size:12pt"><tspan y="24.5" x="27.6">numbersEnd[i - 1] = tempIntArray</tspan></text></g><g id="shape26" transform="translate(1096.63,1241.5)"><path stroke-width="3" fill="none" d="M0,0L0,32L-205.3,32L-205.3,-316.6L-104.3,-316.6" stroke="#303030"/><path stroke-width="1" fill="#303030" stroke-linecap="round" d="M-104.3,-321.8L-93.9,-316.6L-104.3,-311.4L-104.3,-321.8" stroke="#303030"/></g><g id="shape27" transform="translate(1756.2,425.07)"><path stroke-width="3" fill="none" d="M0,0L70.8,0C70.8,-3.3,73.5,-6,76.8,-6C80.1,-6,82.8,-3.3,82.8,0L316.8,0L316.8,79.6" stroke="#303030"/><path stroke-width="1" fill="#303030" stroke-linecap="round" d="M322,79.6L316.8,90L311.6,79.6L322,79.6" stroke="#303030"/><rect fill="#ffffff" y="-15.8" x="188.5" height="29.6" width="35.2"/><text xml:space="preserve" style="fill:#191919;font-family:Cairo;font-size:12pt"><tspan y="5" x="188.5">False</tspan></text></g><g id="shape28" transform="translate(1602.39,922.43)"><path fill="#ffffff" stroke-width="3" d="M193.3,32L193.3,7C193.3,3.1,190.1,0,186.3,0L7,0C3.1,0,0,3.1,0,7L0,32C0,35.9,3.1,39,7,39L186.3,39C190.1,39,193.3,35.9,193.3,32z" fill-rule="evenodd" stroke="#323232"/><text xml:space="preserve" style="fill:#191919;font-family:Cairo;font-size:12pt"><tspan y="24.5" x="40.2">numForLoob = 0</tspan></text></g><g id="shape29" transform="translate(1190.5,924.93)"><path stroke-width="3" fill="none" d="M0,0L204.5,0L204.5,208.1" stroke="#303030"/><path stroke-width="1" fill="#303030" stroke-linecap="round" d="M209.7,208.1L204.5,218.5L199.3,208.1L209.7,208.1" stroke="#303030"/><rect fill="#ffffff" y="-15.8" x="109.8" height="29.6" width="35.2"/><text xml:space="preserve" style="fill:#191919;font-family:Cairo;font-size:12pt"><tspan y="5" x="109.8">False</tspan></text></g><g id="shape30" transform="matrix(0,1,-1,0,1390.6,1306.3)"><path stroke-width="3" fill="none" d="M98,187.3L154.7,220.6M196,114.8L196,187.3L0,187.3L0,114.8" stroke="#323232"/><text xml:space="preserve" style="fill:#191919;font-family:Cairo;font-size:12pt" transform="matrix(0,-1,1,0,98,98)"><tspan y="-70" x="-35.6">int num = 0;</tspan><tspan y="-40.4" x="-78">    const char* charwith0;</tspan><tspan y="-10.8" x="-60.8">    charwith0 = byte;</tspan><tspan y="18.8" x="-83.2">    sscanf(&amp;charwith0, "%d", </tspan><tspan y="48.4" x="-20.8">&amp;num);</tspan><tspan y="78" x="-42.4">    return num;</tspan></text></g><g id="shape31" transform="translate(1169.99,1461)"><path stroke-width="3" fill="none" d="M0,0L-7.5,0L-7.5,-209.1" stroke="#303030"/><path stroke-width="1" fill="#303030" stroke-linecap="round" d="M-12.7,-209.1L-7.5,-219.5L-2.3,-209.1L-12.7,-209.1" stroke="#303030"/></g><g id="shape32" transform="translate(1911.46,515.11)"><path fill="#ffffff" stroke-width="3" d="M323.1,44.9L323.1,7C323.1,3.1,319.9,0,316.1,0L7,0C3.1,0,0,3.1,0,7L0,44.9C0,48.8,3.1,51.9,7,51.9L316.1,51.9C319.9,51.9,323.1,48.8,323.1,44.9z" fill-rule="evenodd" stroke="#323232"/><text xml:space="preserve" style="fill:#191919;font-family:Cairo;font-size:12pt"><tspan y="30.9" x="27.1">endChar[numForLoobChar] = readInput</tspan></text></g><g id="shape33" transform="translate(2211,858)"><path fill="#ffffff" stroke-width="3" d="M250,44.9L250,7C250,3.1,246.9,0,243,0L7,0C3.1,0,0,3.1,0,7L0,44.9C0,48.8,3.1,51.9,7,51.9L243,51.9C246.9,51.9,250,48.8,250,44.9z" fill-rule="evenodd" stroke="#323232"/><text xml:space="preserve" style="fill:#191919;font-family:Cairo;font-size:12pt"><tspan y="30.9" x="13.4">placeChars[numLoobForChar] = i</tspan></text></g><g id="shape34" transform="translate(2073,567)"><path stroke-width="3" fill="none" d="M0,0L0,83.6" stroke="#303030"/><path stroke-width="1" fill="#303030" stroke-linecap="round" d="M5.2,83.6L0,94L-5.2,83.6L5.2,83.6" stroke="#303030"/></g><g id="shape35" transform="translate(1972.96,661)"><path fill="#ffffff" stroke-width="3" d="M100,108.1L200.1,54.1L100,0L0,54.1L100,108.1z" fill-rule="evenodd" stroke="#323232"/><text xml:space="preserve" style="fill:#191919;font-family:Cairo;font-size:12pt"><tspan y="59.1" x="35.2">isalpha(input[i +1]) </tspan></text></g><g id="shape36" transform="translate(2173.04,715.05)"><path stroke-width="3" fill="none" d="M0,0L163,0L163,132.6" stroke="#303030"/><path stroke-width="1" fill="#303030" stroke-linecap="round" d="M168.2,132.6L163,142.9L157.8,132.6L168.2,132.6" stroke="#303030"/><rect fill="#ffffff" y="-15.8" x="69.2" height="29.6" width="35.2"/><text xml:space="preserve" style="fill:#191919;font-family:Cairo;font-size:12pt"><tspan y="5" x="69.2">False</tspan></text></g><g id="shape37" transform="translate(1992,1153)"><path stroke-width="3" fill="none" d="M0,0L-159,0L-159,-864.6" stroke="#303030"/><path stroke-width="1" fill="#303030" stroke-linecap="round" d="M-164.2,-864.6L-159,-875L-153.8,-864.6L-164.2,-864.6" stroke="#303030"/></g><g id="shape38" transform="translate(1604.99,207.32)"><path stroke-width="3" fill="none" d="M0,0L-697.7,0L-697.7,64" stroke="#303030"/><path stroke-width="1" fill="#303030" stroke-linecap="round" d="M-692.5,64L-697.7,74.4L-702.9,64L-692.5,64" stroke="#303030"/><rect fill="#ffffff" y="-15.8" x="-258.5" height="29.6" width="35.2"/><text xml:space="preserve" style="fill:#191919;font-family:Cairo;font-size:12pt"><tspan y="5" x="-258.5">False</tspan></text></g><g id="shape39" transform="translate(1584.05,693.5)"><path fill="#ffffff" stroke-width="3" d="M229.9,42L229.9,7C229.9,3.1,226.8,0,222.9,0L7,0C3.1,0,0,3.1,0,7L0,42C0,45.9,3.1,49,7,49L222.9,49C226.8,49,229.9,45.9,229.9,42z" fill-rule="evenodd" stroke="#323232"/><text xml:space="preserve" style="fill:#191919;font-family:Cairo;font-size:12pt"><tspan y="29.5" x="49">placeNumbers[i] = i</tspan></text></g><g id="shape40" transform="translate(1328.3,676.93)"><path stroke-width="3" fill="none" d="M0,0L-115,0" stroke="#303030"/><path stroke-width="1" fill="#303030" stroke-linecap="round" d="M-115,5.2L-125.4,0L-115,-5.2L-115,5.2" stroke="#303030"/><rect fill="#ffffff" y="-15.8" x="-78.2" height="29.6" width="35.2"/><text xml:space="preserve" style="fill:#191919;font-family:Cairo;font-size:12pt"><tspan y="5" x="-78.2">False</tspan></text></g><g id="shape41" transform="translate(1549.55,861.93)"><path stroke-width="3" fill="none" d="M0,0L20.8,0L20.8,80L42.4,80" stroke="#303030"/><path stroke-width="1" fill="#303030" stroke-linecap="round" d="M42.4,74.8L52.8,80L42.4,85.2L42.4,74.8" stroke="#303030"/></g><g id="shape42" transform="translate(1699.03,693.5)"><path stroke-width="3" fill="none" d="M0,0L0,-176.4L134,-176.4L134,-405.1" stroke="#303030"/><path stroke-width="1" fill="#303030" stroke-linecap="round" d="M128.8,-405.1L134,-415.5L139.2,-405.1L128.8,-405.1" stroke="#303030"/></g><g id="shape43" transform="translate(1800,652)"><path stroke-width="3" fill="none" d="" stroke="#303030"/></g><g id="shape44" transform="translate(794.5,281.7)"><path fill="#ffffff" stroke-width="3" d="M112.8,134.4L225.5,67.2L112.8,0L0,67.2L112.8,134.4z" fill-rule="evenodd" stroke="#323232"/><text xml:space="preserve" style="fill:#191919;font-family:Cairo;font-size:12pt"><tspan y="72.2" x="42.4">i &lt;= numOfDigitInput</tspan></text></g><g id="shape45" transform="translate(907.25,416.07)"><path stroke-width="3" fill="none" d="M0,0L0,49.6" stroke="#303030"/><path stroke-width="1" fill="#303030" stroke-linecap="round" d="M5.2,49.6L0,60L-5.2,49.6L5.2,49.6" stroke="#303030"/></g><g id="shape46" transform="translate(794.5,476.07)"><path fill="#ffffff" stroke-width="3" d="M225.5,36.9L225.5,7C225.5,3.1,222.4,0,218.5,0L7,0C3.1,0,0,3.1,0,7L0,36.9C0,40.8,3.1,43.9,7,43.9L218.5,43.9C222.4,43.9,225.5,40.8,225.5,36.9z" fill-rule="evenodd" stroke="#323232"/><text xml:space="preserve" style="fill:#191919;font-family:Cairo;font-size:12pt"><tspan y="27" x="72.4">operation = </tspan></text></g><g id="shape47" transform="translate(1537.82,1162.93)"><path stroke-width="3" fill="none" d="M0,0L161.2,0L161.2,-191.1" stroke="#303030"/><path stroke-width="1" fill="#303030" stroke-linecap="round" d="M156,-191.1L161.2,-201.5L166.4,-191.1L156,-191.1" stroke="#303030"/></g><g id="shape48" transform="translate(1699.03,922.43)"><path stroke-width="3" fill="none" d="M0,0L-0,-169.5" stroke="#303030"/><path stroke-width="1" fill="#303030" stroke-linecap="round" d="M-5.2,-169.5L-0,-179.9L5.2,-169.5L-5.2,-169.5" stroke="#303030"/></g><g id="shape49" transform="translate(2336,909.89)"><path stroke-width="3" fill="none" d="M0,0L0,34.7" stroke="#303030"/><path stroke-width="1" fill="#303030" stroke-linecap="round" d="M5.2,34.7L0,45.1L-5.2,34.7L5.2,34.7" stroke="#303030"/></g><path fill="#ffffff" stroke-width="3" id="shape50" transform="translate(2246.02,955.03)" d="M90,108L180,54L90,0L0,54L90,108z" fill-rule="evenodd" stroke="#323232"/><g id="shape51" transform="translate(1992,1126)"><path fill="#ffffff" stroke-width="3" d="M162,47L162,7C162,3.1,158.9,0,155,0L7,0C3.1,0,0,3.1,0,7L0,47C0,50.9,3.1,54,7,54L155,54C158.9,54,162,50.9,162,47z" fill-rule="evenodd" stroke="#323232"/><text xml:space="preserve" style="fill:#191919;font-family:Cairo;font-size:12pt"><tspan y="32" x="10.6">numForLoobChar ++</tspan></text></g><g id="shape52" transform="translate(2073,769.11)"><path stroke-width="3" fill="none" d="M0,0L0,346.5" stroke="#303030"/><path stroke-width="1" fill="#303030" stroke-linecap="round" d="M5.2,346.5L0,356.9L-5.2,346.5L5.2,346.5" stroke="#303030"/></g><g id="shape53" transform="translate(2037.46,813)"><path fill="#ffffff" d="M0,0L71.1,0L71.1,54L0,54L0,0z" fill-rule="evenodd"/><text xml:space="preserve" style="fill:#191919;font-family:Cairo;font-size:12pt"><tspan y="32" x="20.7">True</tspan></text></g></g></svg>